<svg width="174" height="143" viewBox="0 0 174 143" fill="none" xmlns="http://www.w3.org/2000/svg">
<path d="M143.732 2.797L165.577 20.497L168.219 22.637L168.902 25.967L172.402 43.012L173.327 47.516L170.369 51.035L100.395 134.29L93.848 142.08L86.525 135.014L0 51.514L13.1931 37.842L50.861 74.192L55.978 68.659L18.0471 32.56L31.1461 18.796L68.877 54.705L73.663 49.529L35.625 14.133L48.5681 0.222992L86.562 35.577L90.121 31.729L104.072 44.627L100.471 48.521L120.568 67.223L107.625 81.133L87.572 62.473L82.643 67.806L103.646 87.796L90.5471 101.56L69.742 81.759L64.536 87.39L92.3961 114.275L152.865 42.329L150.975 33.118L135.223 20.354L122.529 22.845L111.688 34.383L104.765 27.878L97.842 21.372L110.777 7.60498L112.872 5.37698L115.872 4.789L135.923 0.85498L140.282 0L143.732 2.797Z" fill="#212121"/>
</svg>
