<svg width="124" height="20" viewBox="0 0 124 20" fill="none" xmlns="http://www.w3.org/2000/svg">
<path d="M120.723 0L123.413 2.00373L115.007 9.71918L123.172 17.345L120.723 19.7674C117.274 16.2386 114.433 13.4574 110.623 10.0182V9.27055C113.918 6.30997 116.7 3.61864 120.723 0Z" fill="#F5F5F5"/>
<path d="M68.7846 19.2001V0.236374H72.0347L79.7145 5.34558V5.94643L72.0347 13.5201V19.7712L69.0209 19.4705L68.7846 19.2001ZM72.0347 9.28236L75.1643 6.30714L72.0347 4.14338V9.28236Z" fill="#F5F5F5"/>
<path d="M57.0179 0H56.7272L49.5249 10.9989V0.290258H46.5608L46.3291 0.551691V20H46.6199L53.8221 9.8376L54.0656 20H57.0274L57.259 19.7386L57.0179 0Z" fill="#F5F5F5"/>
<path d="M23.4671 0.236374H23.7673H26.4809V2.55873L31.2438 0.536803H34.319L34.5601 0.807441V19.7712H34.2576H31.2438V3.65149L26.4809 5.42736V19.7712H23.4057L23.1646 19.5008L23.4671 0.236374Z" fill="#F5F5F5"/>
<path d="M9.91584 0.236374L12.5585 2.21646L4.30434 9.84115L12.3198 17.3774L9.91584 19.7712C6.53098 16.2837 3.74179 13.5354 0 10.1368V9.39795C3.23595 6.47213 5.96841 3.81223 9.91584 0.236374Z" fill="#F5F5F5"/>
<path d="M104.352 5.94548L104.95 8.84271L95.6271 19.8553L84.6216 9.30836L86.1698 7.71616L95.4569 16.6173L102.55 8.23878L102.328 7.16611L100.48 5.67956L98.993 5.96959L97.7213 7.31337L96.0974 5.79822L97.8584 3.93537L101.073 3.30922L104.352 5.94548Z" fill="#F5F5F5"/>
<path d="M96.6766 13.5163L95.1567 15.1279L86.7489 7.04817L88.2688 5.43658L96.6766 13.5163Z" fill="#F5F5F5"/>
<path d="M98.804 11.1386L97.2912 12.7641L88.8763 4.93475L90.3891 3.30922L98.804 11.1386Z" fill="#F5F5F5"/>
<path d="M91.0249 14.6551L89.349 13.1747L95.2371 7.09119L96.913 8.5716L91.0249 14.6551Z" fill="#F5F5F5"/>
</svg>
